<?xml version="1.0" encoding="utf-8"?>
<!-- Generator: Adobe Illustrator 16.0.0, SVG Export Plug-In . SVG Version: 6.00 Build 0)  -->
<!DOCTYPE svg PUBLIC "-//W3C//DTD SVG 1.1//EN" "http://www.w3.org/Graphics/SVG/1.1/DTD/svg11.dtd">
<svg version="1.1" id="Layer_1" xmlns="http://www.w3.org/2000/svg" xmlns:xlink="http://www.w3.org/1999/xlink" x="0px" y="0px"
	 width="400px" height="400px" viewBox="0 0 400 400" style="enable-background:new 0 0 400 400;" xml:space="preserve">
<style type="text/css">
<![CDATA[
	.st0{fill:#BDC4F4;}
	.st1{fill:#325987;}
]]>
</style>
<g>
	<circle class="st1" cx="200" cy="200" r="200"/>
	<path class="st0" d="M311,132.8c0-43.8-41.2-79.2-90.9-79.2C189.7,53.6,164,66.8,145,87v-4.3c0-16.1-5.9-29.1-15-29.1
		c-9.1,0-15,13-15,29.1v229.4c0,16.1,5.9,29.1,15,29.1c9.1,0,15-13,15-29.1V178.6c17,17.8,39,30.1,65,32.9v137.4
		c0,5.8,4.7,10.5,10.5,10.5s10.5-4.7,10.5-10.5V211.5C275,207.1,311,173.6,311,132.8z M241.8,173H238c11.6-7,19.6-17.8,19.6-31.6
		c0-19.7-16.1-35.6-36-35.6c-19.9,0-36,15.9-36,35.6c0,13.8,7.9,24.6,19.5,31.6h-5.4c-27.2,0-49.2-18.6-49.2-42.5
		c0-23.9,22-42.5,49.2-42.5h42.2c27.2,0,49.2,18.6,49.2,42.5C291,154.4,269,173,241.8,173z"/>
</g>
</svg>
