<?xml version="1.0" encoding="utf-8"?>
<!-- Generator: Adobe Illustrator 16.0.0, SVG Export Plug-In . SVG Version: 6.00 Build 0)  -->
<!DOCTYPE svg PUBLIC "-//W3C//DTD SVG 1.1//EN" "http://www.w3.org/Graphics/SVG/1.1/DTD/svg11.dtd">
<svg version="1.1" id="Layer_1" xmlns="http://www.w3.org/2000/svg" xmlns:xlink="http://www.w3.org/1999/xlink" x="0px" y="0px"
	 width="400px" height="400px" viewBox="0 0 400 400" style="enable-background:new 0 0 400 400;" xml:space="preserve">
<style type="text/css">
<![CDATA[
	.st0{fill:#BDC4F4;}
	.st1{fill:#325987;}
]]>
</style>
<g>
	<circle class="st1" cx="200" cy="200" r="178.3"/>
	<path class="st0" d="M299.2,140.1c0-39-36.8-70.7-81.1-70.7c-27.1,0-50,11.8-67,29.8v-3.9c0-14.3-5.3-26-13.5-26S124,81.1,124,95.4
		V300c0,14.3,5.3,26,13.5,26s13.5-11.6,13.5-26V180.9c15,15.8,35,26.9,58,29.3v122.5c0,5.2,4.3,9.4,9.5,9.4s9.5-4.2,9.5-9.4V210.3
		C267,206.3,299.2,176.4,299.2,140.1z M237.3,176h-3.4c10.4-6,17.5-15.9,17.5-28.2c0-17.5-14.4-31.8-32.1-31.8
		c-17.7,0-32.1,14.2-32.1,31.8c0,12.3,7.1,22.2,17.4,28.2h-4.9c-24.2,0-43.9-16.7-43.9-38c0-21.3,19.6-38,43.9-38h37.6
		c24.2,0,43.9,16.7,43.9,38C281.2,159.3,261.5,176,237.3,176z"/>
</g>
</svg>
